<svg version="1" xmlns="http://www.w3.org/2000/svg" width="682.667" height="682.667" viewBox="0 0 512.000000 512.000000"><path d="M243.5 2.6c-2.2 1-5.6 2.8-7.5 4.2-8.3 6-51 40.5-51 41.2 0 .4 10.5 8.8 23.3 18.5 23.4 17.9 55.3 42.7 87.1 67.3 9.4 7.4 24.1 18.8 32.6 25.3 45.3 34.8 67.5 52.7 67.7 54.5.3 2.4-25.6 23.4-28.8 23.4-1.3 0-8.4-5-17.4-12.3-8.4-6.7-21.5-17-29.1-22.9-7.7-5.9-18.6-14.4-24.4-18.9-11.7-9.1-58.2-45.2-80.8-62.7-8.1-6.2-20.7-16.1-28.1-22-7.4-5.9-17.5-13.8-22.5-17.6-5-3.7-9.4-7.2-9.7-7.7-.5-.9-19 12.7-28.9 21.1-2.5 2.2-16.9 13.7-32 25.6-33.4 26.3-32.7 25.7-35.6 31.9l-2.4 5V244c0 53.8.4 90.7 1 95.7 1.9 14.6 5.6 21.7 15 28.6 3 2.3 15.9 12.2 28.5 22.2 12.7 10 40.1 31.5 61 47.9s46.1 36.2 56 44c9.9 7.8 20 15.6 22.5 17.2 2.5 1.6 4.9 3.4 5.3 4.1 1.4 2.2 6.7 4.4 10.6 4.5 4 0 6.9-1.1 9.6-3.9.9-.9 4.1-3.2 7.1-5.2 2.9-2 18.8-14.2 35.1-27 36.5-28.8 97.8-76.8 120.9-94.8 22.1-17.1 24.6-20.9 26.5-39.6.6-6.3.9-43.8.7-97.2l-.3-87-2.5-4.5c-2.9-5.2-.6-3.3-80.5-65.5-31.8-24.8-66.9-52.1-77.9-60.7-25.5-20-27.5-21.1-38.6-21.5-6.2-.2-9.6.1-12.5 1.3z"/></svg>